<?xml version="1.0" encoding="UTF-8"?><svg id="_レイヤー_1" xmlns="http://www.w3.org/2000/svg" viewBox="0 0 290 290"><defs><style>.cls-1{fill:#fff;}.cls-2{fill:#303030;}</style></defs><circle class="cls-2" cx="145" cy="145" r="145"/><path class="cls-1" d="m224.28,108.64c.12,1.7.12,3.4.12,5.1,0,51.87-39.48,111.63-111.63,111.63-22.23,0-42.88-6.44-60.25-17.61,3.16.36,6.19.49,9.47.49,18.34,0,35.23-6.19,48.71-16.76-17.25-.36-31.7-11.66-36.68-27.21,2.43.36,4.86.61,7.41.61,3.52,0,7.05-.49,10.32-1.34-17.98-3.64-31.46-19.44-31.46-38.51v-.49c5.22,2.92,11.3,4.74,17.73,4.98-10.57-7.05-17.49-19.07-17.49-32.68,0-7.29,1.94-13.97,5.34-19.8,19.31,23.81,48.35,39.36,80.9,41.06-.61-2.92-.97-5.95-.97-8.99,0-21.62,17.49-39.23,39.23-39.23,11.3,0,21.5,4.74,28.67,12.39,8.87-1.7,17.37-4.98,24.9-9.47-2.92,9.11-9.11,16.76-17.25,21.62,7.9-.85,15.55-3.04,22.59-6.07-5.34,7.77-12.03,14.7-19.68,20.29h0Z"/></svg>